HIERARCHY
ROOT Hips
{
	OFFSET 0.553752 88.293289 6.115313
	CHANNELS 6 Xposition Yposition Zposition Zrotation Yrotation Xrotation 
	JOINT Spine
	{
		OFFSET 0.000000 8.814246 -2.080107
		CHANNELS 3 Zrotation Yrotation Xrotation
		JOINT Spine1
		{
			OFFSET 0.000000 8.844141 -0.000000
			CHANNELS 3 Zrotation Yrotation Xrotation
			JOINT Spine2
			{
				OFFSET 0.000000 11.682268 0.000000
				CHANNELS 3 Zrotation Yrotation Xrotation
				JOINT Spine3
				{
					OFFSET 0.000000 11.746700 0.000000
					CHANNELS 3 Zrotation Yrotation Xrotation
					JOINT Neck
					{
						OFFSET -0.000000 17.658264 -0.000000
						CHANNELS 3 Zrotation Yrotation Xrotation
						JOINT Neck1
						{
							OFFSET 0.000000 5.101515 0.000000
							CHANNELS 3 Zrotation Yrotation Xrotation
							JOINT Head
							{
								OFFSET -0.000000 5.101515 -0.000000
								CHANNELS 3 Zrotation Yrotation Xrotation
								JOINT HeadEnd
								{
									OFFSET 0.000000 11.655085 -0.000000
									CHANNELS 3 Zrotation Yrotation Xrotation
									End Site
									{
										OFFSET 0.000000 0.000000 0.000000
									}
								}
							}
						}
					}
					JOINT RightShoulder
					{
						OFFSET -2.625389 11.175210 -0.000000
						CHANNELS 3 Zrotation Yrotation Xrotation
						JOINT RightArm
						{
							OFFSET 0.000000 10.434715 0.000000
							CHANNELS 3 Zrotation Yrotation Xrotation
							JOINT RightForeArm
							{
								OFFSET -0.000000 29.628420 0.000000
								CHANNELS 3 Zrotation Yrotation Xrotation
								JOINT RightHand
								{
									OFFSET 0.000000 22.857611 -0.000000
									CHANNELS 3 Zrotation Yrotation Xrotation
									JOINT RightHandThumb1
									{
										OFFSET -2.867323 3.959563 2.944291
										CHANNELS 3 Zrotation Yrotation Xrotation
										JOINT RightHandThumb2
										{
											OFFSET -0.000000 3.350399 0.000000
											CHANNELS 3 Zrotation Yrotation Xrotation
											JOINT RightHandThumb3
											{
												OFFSET 0.000000 3.756509 -0.000000
												CHANNELS 3 Zrotation Yrotation Xrotation
												JOINT RightHandThumb4
												{
													OFFSET 0.000000 3.147345 -0.000000
													CHANNELS 3 Zrotation Yrotation Xrotation
													End Site
													{
														OFFSET 0.000000 0.000000 0.000000
													}
												}
											}
										}
									}
									JOINT RightHandIndex1
									{
										OFFSET -0.086752 10.030893 2.345280
										CHANNELS 3 Zrotation Yrotation Xrotation
										JOINT RightHandIndex2
										{
											OFFSET -0.000000 4.061090 -0.000000
											CHANNELS 3 Zrotation Yrotation Xrotation
											JOINT RightHandIndex3
											{
												OFFSET 0.000000 3.248873 0.000000
												CHANNELS 3 Zrotation Yrotation Xrotation
												JOINT RightHandIndex4
												{
													OFFSET -0.000000 2.639709 0.000000
													CHANNELS 3 Zrotation Yrotation Xrotation
													End Site
													{
														OFFSET 0.000000 0.000000 0.000000
													}
												}
											}
										}
									}
									JOINT RightHandMiddle1
									{
										OFFSET 0.104102 9.502952 0.006768
										CHANNELS 3 Zrotation Yrotation Xrotation
										JOINT RightHandMiddle2
										{
											OFFSET 0.000000 4.568727 -0.000000
											CHANNELS 3 Zrotation Yrotation Xrotation
											JOINT RightHandMiddle3
											{
												OFFSET 0.000000 3.654981 -0.000000
												CHANNELS 3 Zrotation Yrotation Xrotation
												JOINT RightHandMiddle4
												{
													OFFSET -0.000000 2.741236 0.000000
													CHANNELS 3 Zrotation Yrotation Xrotation
													End Site
													{
														OFFSET 0.000000 0.000000 0.000000
													}
												}
											}
										}
									}
									JOINT RightHandRing1
									{
										OFFSET 0.086752 8.921708 -2.267442
										CHANNELS 3 Zrotation Yrotation Xrotation
										JOINT RightHandRing2
										{
											OFFSET -0.000000 4.061090 0.000000
											CHANNELS 3 Zrotation Yrotation Xrotation
											JOINT RightHandRing3
											{
												OFFSET 0.000000 3.654981 0.000000
												CHANNELS 3 Zrotation Yrotation Xrotation
												JOINT RightHandRing4
												{
													OFFSET 0.000000 2.741236 0.000000
													CHANNELS 3 Zrotation Yrotation Xrotation
													End Site
													{
														OFFSET 0.000000 0.000000 0.000000
													}
												}
											}
										}
									}
									JOINT RightHandPinky1
									{
										OFFSET -0.173504 7.976997 -4.467199
										CHANNELS 3 Zrotation Yrotation Xrotation
										JOINT RightHandPinky2
										{
											OFFSET 0.000000 3.350399 -0.000000
											CHANNELS 3 Zrotation Yrotation Xrotation
											JOINT RightHandPinky3
											{
												OFFSET -0.000000 2.842763 0.000000
												CHANNELS 3 Zrotation Yrotation Xrotation
												JOINT RightHandPinky4
												{
													OFFSET -0.000000 2.639709 0.000000
													CHANNELS 3 Zrotation Yrotation Xrotation
													End Site
													{
														OFFSET 0.000000 0.000000 0.000000
													}
												}
											}
										}
									}
									JOINT RightForeArmEnd
									{
										OFFSET 0.000000 0.000000 0.000000
										CHANNELS 3 Zrotation Yrotation Xrotation
										End Site
										{
											OFFSET 0.000000 0.000000 0.000000
										}
									}
								}
								JOINT RightArmEnd
								{
									OFFSET 0.000000 0.000000 0.000000
									CHANNELS 3 Zrotation Yrotation Xrotation
									End Site
									{
										OFFSET 0.000000 0.000000 0.000000
									}
								}
							}
						}
					}
					JOINT LeftShoulder
					{
						OFFSET 2.625389 11.175210 -0.000000
						CHANNELS 3 Zrotation Yrotation Xrotation
						JOINT LeftArm
						{
							OFFSET 0.000000 10.813635 -0.000000
							CHANNELS 3 Zrotation Yrotation Xrotation
							JOINT LeftForeArm
							{
								OFFSET -0.000000 28.724781 -0.000000
								CHANNELS 3 Zrotation Yrotation Xrotation
								JOINT LeftHand
								{
									OFFSET 0.644384 25.716167 -0.328871
									CHANNELS 3 Zrotation Yrotation Xrotation
									JOINT LeftHandThumb1
									{
										OFFSET 2.867323 3.959563 2.944291
										CHANNELS 3 Zrotation Yrotation Xrotation
										JOINT LeftHandThumb2
										{
											OFFSET 0.000000 3.350399 -0.000000
											CHANNELS 3 Zrotation Yrotation Xrotation
											JOINT LeftHandThumb3
											{
												OFFSET 0.000000 3.756509 0.000000
												CHANNELS 3 Zrotation Yrotation Xrotation
												JOINT LeftHandThumb4
												{
													OFFSET 0.000000 3.100000 0.000000
													CHANNELS 3 Zrotation Yrotation Xrotation
													End Site
													{
														OFFSET 0.000000 0.000000 0.000000
													}
												}
											}
										}
									}
									JOINT LeftHandIndex1
									{
										OFFSET 0.086752 10.030893 2.345280
										CHANNELS 3 Zrotation Yrotation Xrotation
										JOINT LeftHandIndex2
										{
											OFFSET 0.000000 4.061090 0.000000
											CHANNELS 3 Zrotation Yrotation Xrotation
											JOINT LeftHandIndex3
											{
												OFFSET -0.000000 3.248873 -0.000000
												CHANNELS 3 Zrotation Yrotation Xrotation
												JOINT LeftHandIndex4
												{
													OFFSET 0.000000 2.639709 0.000000
													CHANNELS 3 Zrotation Yrotation Xrotation
													End Site
													{
														OFFSET 0.000000 0.000000 0.000000
													}
												}
											}
										}
									}
									JOINT LeftHandMiddle1
									{
										OFFSET -0.104102 9.502952 0.006768
										CHANNELS 3 Zrotation Yrotation Xrotation
										JOINT LeftHandMiddle2
										{
											OFFSET -0.000000 4.568727 -0.000000
											CHANNELS 3 Zrotation Yrotation Xrotation
											JOINT LeftHandMiddle3
											{
												OFFSET -0.000000 3.654981 -0.000000
												CHANNELS 3 Zrotation Yrotation Xrotation
												JOINT LeftHandMiddle4
												{
													OFFSET -0.000000 2.741236 0.000000
													CHANNELS 3 Zrotation Yrotation Xrotation
													End Site
													{
														OFFSET 0.000000 0.000000 0.000000
													}
												}
											}
										}
									}
									JOINT LeftHandRing1
									{
										OFFSET -0.086752 8.921708 -2.267442
										CHANNELS 3 Zrotation Yrotation Xrotation
										JOINT LeftHandRing2
										{
											OFFSET -0.000000 4.061090 -0.000000
											CHANNELS 3 Zrotation Yrotation Xrotation
											JOINT LeftHandRing3
											{
												OFFSET 0.000000 3.654981 -0.000000
												CHANNELS 3 Zrotation Yrotation Xrotation
												JOINT LeftHandRing4
												{
													OFFSET 0.000000 2.741236 -0.000000
													CHANNELS 3 Zrotation Yrotation Xrotation
													End Site
													{
														OFFSET 0.000000 0.000000 0.000000
													}
												}
											}
										}
									}
									JOINT LeftHandPinky1
									{
										OFFSET 0.173504 7.976997 -4.467199
										CHANNELS 3 Zrotation Yrotation Xrotation
										JOINT LeftHandPinky2
										{
											OFFSET 0.000000 3.350399 0.000000
											CHANNELS 3 Zrotation Yrotation Xrotation
											JOINT LeftHandPinky3
											{
												OFFSET -0.000000 2.842763 -0.000000
												CHANNELS 3 Zrotation Yrotation Xrotation
												JOINT LeftHandPinky4
												{
													OFFSET -0.000000 2.639709 0.000000
													CHANNELS 3 Zrotation Yrotation Xrotation
													End Site
													{
														OFFSET 0.000000 0.000000 0.000000
													}
												}
											}
										}
									}
									JOINT LeftForeArmEnd
									{
										OFFSET 0.000000 0.000000 0.000000
										CHANNELS 3 Zrotation Yrotation Xrotation
										End Site
										{
											OFFSET 0.000000 0.000000 0.000000
										}
									}
								}
								JOINT LeftArmEnd
								{
									OFFSET 0.000000 0.000000 0.000000
									CHANNELS 3 Zrotation Yrotation Xrotation
									End Site
									{
										OFFSET 0.000000 0.000000 0.000000
									}
								}
							}
						}
					}
				}
			}
		}
	}
	JOINT RightUpLeg
	{
		OFFSET -11.289943 -0.000000 0.000000
		CHANNELS 3 Zrotation Yrotation Xrotation
		JOINT RightLeg
		{
			OFFSET -0.000000 -38.200325 -0.000000
			CHANNELS 3 Zrotation Yrotation Xrotation
			JOINT RightFoot
			{
				OFFSET 0.000000 -39.900856 0.000000
				CHANNELS 3 Zrotation Yrotation Xrotation
				JOINT RightToeBase
				{
					OFFSET -0.000000 -0.000000 15.261641
					CHANNELS 3 Zrotation Yrotation Xrotation
					JOINT RightToeBaseEnd
					{
						OFFSET 0.000000 0.000000 7.370709
						CHANNELS 3 Zrotation Yrotation Xrotation
						End Site
						{
							OFFSET 0.000000 0.000000 0.000000
						}
					}
				}
				JOINT RightLegEnd
				{
					OFFSET 0.000000 0.000000 0.000000
					CHANNELS 3 Zrotation Yrotation Xrotation
					End Site
					{
						OFFSET 0.000000 0.000000 0.000000
					}
				}
			}
			JOINT RightUpLegEnd
			{
				OFFSET 0.000000 0.000000 0.000000
				CHANNELS 3 Zrotation Yrotation Xrotation
				End Site
				{
					OFFSET 0.000000 0.000000 0.000000
				}
			}
		}
	}
	JOINT LeftUpLeg
	{
		OFFSET 11.315661 0.000000 0.000000
		CHANNELS 3 Zrotation Yrotation Xrotation
		JOINT LeftLeg
		{
			OFFSET 0.000000 -38.200325 0.000000
			CHANNELS 3 Zrotation Yrotation Xrotation
			JOINT LeftFoot
			{
				OFFSET 0.000000 -39.900856 0.000000
				CHANNELS 3 Zrotation Yrotation Xrotation
				JOINT LeftToeBase
				{
					OFFSET 0.000000 0.000000 15.261641
					CHANNELS 3 Zrotation Yrotation Xrotation
					JOINT LeftToeBaseEnd
					{
						OFFSET 0.000000 -0.000000 7.539996
						CHANNELS 3 Zrotation Yrotation Xrotation
						End Site
						{
							OFFSET 0.000000 0.000000 0.000000
						}
					}
				}
				JOINT LeftLegEnd
				{
					OFFSET 0.000000 0.000000 0.000000
					CHANNELS 3 Zrotation Yrotation Xrotation
					End Site
					{
						OFFSET 0.000000 0.000000 0.000000
					}
				}
			}
			JOINT LeftUpLegEnd
			{
				OFFSET 0.000000 0.000000 0.000000
				CHANNELS 3 Zrotation Yrotation Xrotation
				End Site
				{
					OFFSET 0.000000 0.000000 0.000000
				}
			}
		}
	}
}
MOTION
Frames: 4
Frame Time: 0.016667
0.553752 88.293289 6.115313 0.690550 0.226839 -18.184019 0.608578 0.052747 11.338003 -0.074509 0.073955 5.201531 -3.485409 0.740736 12.775932 -4.081913 -0.036165 6.315197 -9.480385 2.323020 8.603965 -1.450287 -0.025702 -1.213607 -1.403663 -1.433672 -19.713371 0.000000 0.000000 0.000000 90.418671 -0.117731 15.574350 58.659893 -35.018658 21.774370 -0.337941 11.391740 19.640724 5.470007 16.537664 -3.380486 10.338414 -1.814721 40.003887 0.000000 0.000000 -25.199999 0.000000 0.000000 -17.500000 0.000000 0.000000 0.000000 11.373912 0.000000 -9.653758 7.961737 0.000000 0.000000 7.961737 0.000000 0.000000 0.000000 0.000000 0.000000 10.944197 0.000000 -10.339622 7.660936 0.000000 0.000000 7.660936 0.000000 0.000000 0.000000 0.000000 0.000000 13.864483 -0.000000 -8.921721 9.705137 0.000000 0.000000 9.705137 0.000000 0.000000 0.000000 0.000000 0.000000 16.073565 -0.000000 -9.424103 11.251493 0.000000 0.000000 11.251493 0.000000 0.000000 0.000000 0.000000 0.000000 0.000000 0.000000 0.000000 0.000000 0.000000 0.000000 -88.966408 -0.228388 11.985892 -54.162663 22.522102 11.550957 -0.371352 -11.843594 43.454994 2.098101 -20.541407 -10.868583 -10.338414 1.814721 40.003887 0.000000 0.000000 -25.199999 0.000000 0.000000 -17.500000 0.000000 0.000000 0.000000 -11.874908 -0.000000 -8.441065 -8.312435 0.000000 0.000000 -8.312435 0.000000 0.000000 0.000000 0.000000 0.000000 -11.613338 -0.000000 -9.612418 -8.129336 0.000000 0.000000 -8.129336 0.000000 0.000000 0.000000 0.000000 0.000000 -14.398504 -0.000000 -10.482718 -10.078954 0.000000 0.000000 -10.078954 0.000000 0.000000 0.000000 0.000000 0.000000 -16.237488 -0.000000 -11.889199 -11.366242 0.000000 0.000000 -11.366242 0.000000 0.000000 0.000000 0.000000 0.000000 0.000000 0.000000 0.000000 0.000000 0.000000 0.000000 -8.726820 -11.436524 19.882832 -0.214135 -1.116945 10.763883 3.303828 -13.517627 15.367327 -1.535103 1.594883 -17.325201 0.000000 0.000000 0.000000 0.000000 0.000000 0.000000 0.000000 0.000000 0.000000 -1.426593 -4.381309 13.344759 0.143612 0.505506 15.202374 1.825804 2.527081 15.731866 0.548473 -0.669511 -19.865170 0.000000 0.000000 0.000000 0.000000 0.000000 0.000000 0.000000 0.000000 0.000000 
0.461189 88.051353 5.925642 0.783212 0.014084 -17.010611 0.513598 -0.015431 10.231989 0.116285 0.120047 4.057821 -4.030270 0.712997 13.524020 -3.332651 -0.055219 7.748882 -9.873983 2.459474 10.539599 -1.737185 -1.021542 -0.585100 -0.914946 -0.621731 -17.669235 0.000000 0.000000 0.000000 90.253677 -0.012737 15.999701 58.157227 -36.214260 20.438751 -0.158066 14.598321 23.216995 3.204661 14.622691 -4.547033 10.151077 -1.777364 40.117237 0.000003 0.000009 -24.905256 0.000006 0.000046 -17.268394 0.000008 0.000000 -0.000023 11.130746 0.022697 -8.420407 7.912194 -0.061248 0.112921 7.983189 -0.037871 0.091985 -0.000012 0.000027 -0.000013 11.102701 0.005868 -9.386897 7.697244 -0.024326 0.021522 7.737377 -0.011256 0.016779 0.000017 0.000020 0.000011 14.758643 -0.017286 -8.594449 9.967479 0.034473 0.024380 9.912945 0.004704 0.024151 -0.000014 -0.000394 0.000012 16.870775 -0.017825 -9.575825 11.528114 0.011792 0.337723 11.274273 -0.034068 0.252035 -0.000176 0.000001 -0.000006 0.000000 0.000000 0.000000 0.000000 0.000000 0.000000 -87.880440 -0.335212 11.880660 -55.429451 20.209064 12.082948 -0.672875 -10.284460 42.295242 3.013309 -20.330057 -12.361232 -10.057977 1.748494 40.167618 0.000010 0.000021 -24.613155 0.000026 -0.000017 -17.131924 0.000262 0.000003 0.001216 -11.749115 0.071688 -9.593035 -8.605446 -0.070966 -0.214830 -8.683158 -0.046020 -0.157850 0.000004 -0.000261 -0.000011 -11.543166 0.034118 -10.315882 -8.419989 -0.037167 -0.090277 -8.311481 -0.012776 -0.066738 -0.000409 -0.000042 0.000019 -14.472801 0.001353 -9.974098 -10.333865 0.054097 0.085607 -10.281414 0.021207 0.069322 0.001194 0.000008 -0.000001 -16.343386 0.013885 -10.198718 -11.758143 0.123519 0.279732 -11.653877 0.051438 0.194462 -0.000004 -0.000012 -0.000035 0.000000 0.000000 0.000000 0.000000 0.000000 0.000000 -8.535638 -12.131740 17.163862 -0.201529 -0.904095 13.157089 3.227332 -12.245874 15.261766 -1.129101 1.441387 -17.459772 0.000000 0.000000 0.000000 0.000000 0.000000 0.000000 0.000000 0.000000 0.000000 -0.330858 -3.581843 10.711026 0.124488 0.440124 16.524439 2.590041 1.721431 15.220130 0.413777 -0.755327 -18.989355 0.000000 0.000000 0.000000 0.000000 0.000000 0.000000 0.000000 0.000000 0.000000 
0.438842 88.021271 5.884060 0.795107 -0.060682 -17.308636 0.514430 -0.014853 10.325781 0.090985 0.133230 4.059071 -4.042883 0.712236 13.548816 -3.296783 -0.039046 7.782308 -9.594802 2.498392 10.599683 -1.683309 -0.837755 -0.598662 -0.974164 -0.648561 -17.719769 0.000000 0.000000 0.000000 90.249214 -0.036873 16.039381 57.683163 -36.839638 21.067616 -0.156100 14.383906 22.957323 3.722914 14.281889 -4.591450 10.080276 -1.776409 40.143074 0.000002 0.000021 -24.711359 0.000007 0.000045 -17.135111 0.000021 0.000007 -0.000034 10.736057 0.018884 -8.453478 7.781547 -0.070651 0.130721 7.858330 -0.048584 0.108026 -0.000004 0.000033 -0.000010 10.674113 0.004836 -9.494870 7.544713 -0.028199 0.031472 7.582450 -0.014623 0.025159 0.000020 -0.000011 0.000002 14.291803 -0.014920 -8.779891 9.743942 0.043683 0.008245 9.685693 0.011306 0.012763 -0.000019 -0.000120 -0.000001 16.375587 -0.012554 -9.817636 11.279152 0.040459 0.282195 11.006494 -0.011582 0.204663 -0.000120 0.000007 -0.000013 0.000000 0.000000 0.000000 0.000000 0.000000 0.000000 -88.007553 -0.372663 11.872293 -55.479092 20.366137 12.112081 -0.693662 -10.243881 41.954094 2.335699 -20.244249 -12.475260 -10.070354 1.751442 40.161240 0.000018 0.000028 -24.608965 -0.000002 -0.000014 -17.135393 0.000104 0.000009 0.001051 -11.652803 0.073142 -9.559012 -8.592740 -0.074452 -0.213212 -8.677172 -0.049004 -0.161434 0.000016 -0.000190 -0.000006 -11.445012 0.033957 -10.328033 -8.392269 -0.037807 -0.092000 -8.288087 -0.014024 -0.068035 -0.000345 -0.000038 -0.000005 -14.439788 0.003890 -10.075768 -10.316815 0.056290 0.090860 -10.247972 0.023428 0.071423 0.001233 0.000016 0.000002 -16.385101 0.021463 -10.376808 -11.764082 0.132311 0.295344 -11.654819 0.059202 0.203929 0.000139 0.000006 -0.000045 0.000000 0.000000 0.000000 0.000000 0.000000 0.000000 -8.478208 -12.075019 17.372355 -0.202486 -0.908095 13.224427 3.198611 -12.245775 15.238435 -1.140231 1.446224 -17.439394 0.000000 0.000000 0.000000 0.000000 0.000000 0.000000 0.000000 0.000000 0.000000 -0.319216 -3.624801 10.962462 0.129206 0.447877 16.560791 2.534404 1.758702 15.116508 0.420609 -0.762627 -18.950905 0.000000 0.000000 0.000000 0.000000 0.000000 0.000000 0.000000 0.000000 0.000000 
0.424723 88.001305 5.845668 0.812291 -0.104961 -17.543652 0.505024 -0.008855 10.389081 0.090086 0.138422 4.058501 -4.070593 0.697894 13.558455 -3.247869 -0.039799 7.813931 -9.350524 2.468665 10.639395 -1.639495 -0.748529 -0.616327 -1.001211 -0.663423 -17.807608 0.000000 0.000000 0.000000 90.217003 -0.073673 16.055782 57.428848 -37.309940 21.579914 -0.169571 14.203154 22.725561 3.899943 14.189864 -4.502890 10.030169 -1.771115 40.166039 0.000002 0.000022 -24.561508 0.000007 0.000047 -17.032282 0.000022 0.000006 -0.000034 10.495521 0.014374 -8.456172 7.744592 -0.075617 0.148090 7.817478 -0.055121 0.121193 -0.000005 0.000033 -0.000009 10.393150 0.004683 -9.536586 7.480839 -0.030599 0.039410 7.512956 -0.016795 0.032100 0.000019 -0.000020 0.000004 13.921983 -0.013600 -8.827353 9.611365 0.050218 -0.007724 9.556190 0.016228 0.001281 -0.000018 0.000098 0.000001 15.942545 -0.009933 -9.879556 11.105050 0.061715 0.223178 10.828236 0.005238 0.155989 -0.000092 0.000006 -0.000021 0.000000 0.000000 0.000000 0.000000 0.000000 0.000000 -88.078255 -0.395628 11.846380 -55.562984 20.501492 12.206631 -0.715067 -10.145364 41.521297 1.881388 -20.289021 -12.561528 -10.101737 1.754297 40.147968 0.000017 0.000028 -24.661148 -0.000017 -0.000015 -17.172251 0.000053 0.000008 0.000959 -11.654538 0.073398 -9.612936 -8.598742 -0.076501 -0.214513 -8.689005 -0.050515 -0.163959 0.000015 -0.000174 -0.000007 -11.437095 0.033968 -10.376083 -8.387733 -0.038420 -0.093800 -8.279414 -0.015215 -0.070309 -0.000273 -0.000039 -0.000018 -14.473201 0.005349 -10.129287 -10.295465 0.057938 0.097255 -10.220942 0.024868 0.074278 0.001255 0.000016 0.000002 -16.506605 0.024025 -10.417236 -11.759460 0.138336 0.319680 -11.641392 0.065702 0.220801 0.000247 0.000005 -0.000046 0.000000 0.000000 0.000000 0.000000 0.000000 0.000000 -8.436163 -11.970937 17.516140 -0.203541 -0.907398 13.313375 3.190747 -12.297175 15.212628 -1.146391 1.448774 -17.434807 0.000000 0.000000 0.000000 0.000000 0.000000 0.000000 0.000000 0.000000 0.000000 -0.340265 -3.695415 11.191024 0.132428 0.457090 16.519657 2.499546 1.792019 15.061587 0.430226 -0.768577 -18.935930 0.000000 0.000000 0.000000 0.000000 0.000000 0.000000 0.000000 0.000000 0.000000 
